<?xml version="1.0" encoding="utf-8"?>
<!-- Generator: Adobe Illustrator 24.3.0, SVG Export Plug-In . SVG Version: 6.00 Build 0)  -->
<svg version="1.1" id="Layer_1" xmlns="http://www.w3.org/2000/svg" xmlns:xlink="http://www.w3.org/1999/xlink" x="0px" y="0px"
	 viewBox="0 0 16 16" style="enable-background:new 0 0 16 16;" xml:space="preserve">
<style type="text/css">
	.st0{fill:#110F0F;}
</style>
<g>
	<g>
		<path class="st0" d="M6.81,7.04c0.27,0.23,0.72,0.4,1.17,0.41v0c0.01,0,0.02,0,0.02,0c0.01,0,0.02,0,0.02,0v0
			c0.45-0.01,0.9-0.18,1.17-0.41c1.41-1.2,5.5-4.95,5.5-4.95c1.1-1.02-1.95-2.03-6.67-2.04v0c0,0-0.01,0-0.01,0
			c-0.01,0-0.01,0-0.02,0c-0.01,0-0.01,0-0.02,0c0,0-0.01,0-0.01,0v0C3.26,0.06,0.21,1.07,1.31,2.09C1.31,2.09,5.39,5.84,6.81,7.04z
			"/>
	</g>
	<g>
		<path class="st0" d="M9.19,9.07C8.93,9.3,8.48,9.47,8.02,9.48v0c-0.01,0-0.02,0-0.02,0v0c0,0,0,0,0,0c0,0,0,0,0,0v0
			c-0.01,0-0.02,0-0.02,0v0C7.52,9.47,7.07,9.3,6.81,9.07C5.83,8.24,2.38,5.11,1.09,3.93c0,0.77,0,1.41,0,1.81
			c0,0.2,0.08,0.46,0.21,0.59c0.88,0.81,4.28,3.92,5.51,4.97c0.27,0.23,0.72,0.4,1.17,0.41v0c0.01,0,0.02,0,0.02,0
			c0.01,0,0.02,0,0.02,0v0c0.45-0.01,0.9-0.18,1.17-0.41c1.22-1.04,4.63-4.16,5.51-4.97c0.14-0.12,0.21-0.39,0.21-0.59
			c0-0.4,0-1.04,0-1.81C13.62,5.11,10.17,8.24,9.19,9.07z"/>
	</g>
	<g>
		<path class="st0" d="M9.19,13.32c-0.27,0.23-0.72,0.4-1.17,0.41v0c-0.01,0-0.02,0-0.02,0v0c0,0,0,0,0,0c0,0,0,0,0,0v0
			c-0.01,0-0.02,0-0.02,0v0c-0.45-0.01-0.9-0.18-1.17-0.41c-0.98-0.83-4.42-3.96-5.72-5.14c0,0.77,0,1.41,0,1.81
			c0,0.2,0.08,0.46,0.21,0.59c0.88,0.81,4.28,3.92,5.51,4.97c0.27,0.23,0.72,0.4,1.17,0.41v0c0.01,0,0.02,0,0.02,0
			c0.01,0,0.02,0,0.02,0v0c0.45-0.01,0.9-0.18,1.17-0.41c1.22-1.04,4.63-4.16,5.51-4.97c0.14-0.12,0.21-0.39,0.21-0.59
			c0-0.4,0-1.04,0-1.81C13.62,9.36,10.17,12.48,9.19,13.32z"/>
	</g>
</g>
</svg>
