<svg width="48" height="48" fill="#e94600" xmlns="http://www.w3.org/2000/svg">
    <path d="M24.5475 0C10.3246.0265251 1.11379 3.06365 4.40623 6.10077c0 0 12.32997 11.23333 16.58217 14.84083.8131.6896 2.1728 1.1936 3.5191 1.2201h.1199c1.3463-.0265 2.706-.5305 3.5191-1.2201 4.2522-3.5942 16.5422-14.84083 16.5422-14.84083C48.0478 3.06365 38.8636.0265251 24.6674 0"/>
    <path d="M28.1579 27.0159c-.8131.6896-2.1728 1.1936-3.5191 1.2201h-.12c-1.3463-.0265-2.7059-.5305-3.519-1.2201-2.9725-2.5067-13.35639-11.87-17.26201-15.3979v5.4112c0 .5968.22661 1.3793.6265 1.7506C7.00358 21.1936 17.2675 30.5437 20.9731 33.6737c.8132.6896 2.1728 1.1936 3.5191 1.2201h.12c1.3463-.0265 2.7059-.5305 3.519-1.2201 3.679-3.13 13.9429-12.4536 16.6089-14.8939.4132-.3713.6265-1.1538.6265-1.7506V11.618c-3.9323 3.5411-14.3162 12.931-17.2354 15.3979h.0267Z"/>
    <path d="M28.1579 39.748c-.8131.6897-2.1728 1.1937-3.5191 1.2202h-.12c-1.3463-.0265-2.7059-.5305-3.519-1.2202-2.9725-2.4933-13.35639-11.8567-17.26201-15.3978v5.4111c0 .5969.22661 1.3793.6265 1.7507C7.00358 33.9258 17.2675 43.2759 20.9731 46.4058c.8132.6897 2.1728 1.1937 3.5191 1.2202h.12c1.3463-.0265 2.7059-.5305 3.519-1.2202 3.679-3.1299 13.9429-12.4535 16.6089-14.8938.4132-.3714.6265-1.1538.6265-1.7507v-5.4111c-3.9323 3.5411-14.3162 12.931-17.2354 15.3978h.0267Z"/>
</svg>
