<svg xmlns="http://www.w3.org/2000/svg">
  <symbol id="vm" viewBox="0 0 464.61 533.89">
    <path d="M192.16 234.72c9 7.67 24.12 13.49 39.3 13.69h1.68c15.18-.2 30.31-6 39.3-13.69 47.43-40.45 184.65-166.24 184.65-166.24C493.93 34.21 391.45.2 233.14.01h-1.68C73.15.2-29.33 34.21 7.46 68.48c.05 0 137.27 125.79 184.7 166.24"/><path d="M272.4 302.83c-9 7.67-24.12 13.5-39.3 13.7h-1.6c-15.18-.2-30.31-6-39.3-13.7-32.81-28-148.56-132.93-192.16-172.7v60.74c0 6.67 2.55 15.52 7.09 19.68 29.64 27.18 143.94 131.8 185.07 166.88 9 7.67 24.12 13.49 39.3 13.69h1.6c15.18-.2 30.31-6 39.3-13.69 41.13-35.08 155.43-139.7 185.07-166.88 4.54-4.16 7.09-13 7.09-19.68v-60.74c-43.6 39.82-159.35 144.72-192.16 172.7"/><path d="M272.4 445.59c-9 7.67-24.12 13.49-39.3 13.69h-1.6c-15.18-.2-30.31-6-39.3-13.69-32.81-28-148.56-132.94-192.16-172.7v60.73c0 6.67 2.55 15.53 7.09 19.69 29.64 27.17 143.94 131.8 185.07 166.87 9 7.67 24.12 13.5 39.3 13.7h1.6c15.18-.2 30.31-6 39.3-13.7 41.13-35.07 155.43-139.7 185.07-166.87 4.54-4.16 7.09-13 7.09-19.69v-60.73c-43.6 39.76-159.35 144.72-192.16 172.7"/>
  </symbol>

  <symbol id="collapse" viewBox="3 2 42 44">
    <path d="M22.6 15.4a1.9 1.9 0 0 0 2.8 0l6-5.9a2.1 2.1 0 0 0 .2-2.7 1.9 1.9 0 0 0-3-.2L26 9.2V4a2 2 0 0 0-4 0v5.2l-2.6-2.6a1.9 1.9 0 0 0-3 .2 2.1 2.1 0 0 0 .2 2.7Zm2.8 17.2a1.9 1.9 0 0 0-2.8 0l-6 5.9a2.1 2.1 0 0 0-.2 2.7 1.9 1.9 0 0 0 3 .2l2.6-2.6V44a2 2 0 0 0 4 0v-5.2l2.6 2.6a1.9 1.9 0 0 0 3-.2 2.1 2.1 0 0 0-.2-2.7ZM6 22h36a2 2 0 0 0 0-4H6a2 2 0 0 0 0 4m36 4H6a2 2 0 0 0 0 4h36a2 2 0 0 0 0-4"/>
  </symbol>

  <symbol id="expand" viewBox="205.701 131.84 40.006 44.045">
    <path d="M224.163 175.27a1.9 1.9 0 0 0 2.8 0l6-5.9a2.1 2.1 0 0 0 .2-2.7 1.9 1.9 0 0 0-3-.2l-2.6 2.6v-5.2c0-1.54-1.667-2.502-3-1.732-.619.357-1 1.017-1 1.732v5.2l-2.6-2.6a1.9 1.9 0 0 0-3 .2 2.1 2.1 0 0 0 .2 2.7zm-16.459-23.297h36c1.54 0 2.502-1.667 1.732-3a2 2 0 0 0-1.732-1h-36c-1.54 0-2.502 1.667-1.732 3 .357.619 1.017 1 1.732 1m36 4h-36c-1.54 0-2.502 1.667-1.732 3 .357.619 1.017 1 1.732 1h36c1.54 0 2.502-1.667 1.732-3a2 2 0 0 0-1.732-1m-16.59-23.517a1.9 1.9 0 0 0-2.8 0l-6 5.9a2.1 2.1 0 0 0-.2 2.7 1.9 1.9 0 0 0 3 .2l2.6-2.6v5.2c0 1.54 1.667 2.502 3 1.732.619-.357 1-1.017 1-1.732v-5.2l2.6 2.6a1.9 1.9 0 0 0 3-.2 2.1 2.1 0 0 0-.2-2.7z"/>
  </symbol>

  <symbol id="state" viewBox="-10 -10 320 310">
    <path d="M288.953 0h-277c-5.522 0-10 4.478-10 10v49.531c0 5.522 4.478 10 10 10h12.372l91.378 107.397v113.978a10 10 0 0 0 15.547 8.32l49.5-33a10 10 0 0 0 4.453-8.32v-80.978l91.378-107.397h12.372c5.522 0 10-4.478 10-10V10c0-5.522-4.477-10-10-10M167.587 166.77a10 10 0 0 0-2.384 6.48v79.305l-29.5 19.666V173.25a10 10 0 0 0-2.384-6.48L50.585 69.531h199.736zM278.953 49.531h-257V20h257z"/>
  </symbol>

  <symbol id="search" viewBox="0 0 490.4 490.4">
    <path d="m484.1 454.796-110.5-110.6c29.8-36.3 47.6-82.8 47.6-133.4 0-116.3-94.3-210.6-210.6-210.6S0 94.496 0 210.796s94.3 210.6 210.6 210.6c50.8 0 97.4-18 133.8-48l110.5 110.5c12.9 11.8 25 4.2 29.2 0 8.4-8.3 8.4-20.8 0-29.1m-443-244c0-93.6 75.9-169.5 169.5-169.5s169.6 75.9 169.6 169.5-75.9 169.5-169.5 169.5-169.6-75.9-169.6-169.5"/>
  </symbol>

  <symbol id="all" viewBox="-10 -10 320 310">
    <path d="M288.953 0h-277c-5.522 0-10 4.478-10 10v49.531c0 5.522 4.478 10 10 10h12.372l91.378 107.397v113.978a10 10 0 0 0 15.547 8.32l49.5-33a10 10 0 0 0 4.453-8.32v-80.978l91.378-107.397h12.372c5.522 0 10-4.478 10-10V10c0-5.522-4.477-10-10-10M167.587 166.77a10 10 0 0 0-2.384 6.48v79.305l-29.5 19.666V173.25a10 10 0 0 0-2.384-6.48L50.585 69.531h199.736zM278.953 49.531h-257V20h257z"/><path stroke-width="20" stroke="#000" d="m-10-10 310 310"/>
  </symbol>

  <symbol id="nomatch" viewBox="0 0 116.623 116.623">
    <path d="M99.114 89.251H57.783l19.181-41.797h22.149a5.971 5.971 0 1 0 0-11.942H82.444L94.591 9.049a5.97 5.97 0 0 0-2.938-7.917 5.97 5.97 0 0 0-7.918 2.936L69.304 35.513H41.662c-2.289-.458-17.685-4.48-17.685-29.542a5.97 5.97 0 1 0-11.942 0c0 18.536 7.157 29.533 14.93 35.514-7.774 5.981-14.93 16.978-14.93 35.514a5.971 5.971 0 1 0 11.942 0c0-25.007 14.886-29.013 17.677-29.542h22.17L44.643 89.253H17.509a5.972 5.972 0 0 0 0 11.943h21.653l-3.196 6.965a5.972 5.972 0 1 0 10.856 4.981l5.479-11.943h46.812a5.975 5.975 0 0 0 .001-11.948"/>
  </symbol>

  <symbol id="exclamation" viewBox="0 0 16 16">
    <path d="M8 16A8 8 0 1 0 8 0a8 8 0 0 0 0 16zm.93-9.412-1 4.705c-.07.34.029.533.304.533.194 0 .487-.07.686-.246l-.088.416c-.287.346-.92.598-1.465.598-.703 0-1.002-.422-.808-1.319l.738-3.468c.064-.293.006-.399-.287-.47l-.451-.081.082-.381 2.29-.287zM8 5.5a1 1 0 1 1 0-2 1 1 0 0 1 0 2z"/>
  </symbol>

  <symbol id="unhealthy" viewBox="0 0 14 14">
    <circle cx="7" cy="7" r="6.5" stroke="#000" fill="none"/><path stroke-linecap="round" stroke="#000" stroke-width="1.5" d="m5 5 4 4M5 9l4-4"/>
  </symbol>
</svg>
